<?xml version="1.0" encoding="utf-8"?>
<!-- Generator: Adobe Illustrator 23.0.0, SVG Export Plug-In . SVG Version: 6.00 Build 0)  -->
<svg version="1.1" id="Ebene_1" xmlns="http://www.w3.org/2000/svg" xmlns:xlink="http://www.w3.org/1999/xlink" x="0px" y="0px"
	 viewBox="0 0 86.95 35.94" style="enable-background:new 0 0 86.95 35.94;" xml:space="preserve">
<style type="text/css">
	.st0{fill:#E94E1B;stroke:#E94E1B;stroke-width:0.25;stroke-miterlimit:10;}
	.st1{fill:#FFFFFF;}
</style>
<g>
	<path class="st0" d="M28.07,34.83h0.7V29.2h-0.7v-0.93h2.34l2.35,6.39l2.38-6.39h2.22v0.93h-0.7v5.63h0.7v0.84h-2.4v-0.84h0.79
		v-5.68l-2.59,6.52h-0.83l-2.62-6.54v5.7h0.76v0.84h-2.4V34.83z"/>
	<path class="st0" d="M41.47,35.2c-0.19,0.18-0.4,0.33-0.64,0.44c-0.23,0.11-0.5,0.17-0.79,0.17c-0.25,0-0.47-0.04-0.68-0.12
		s-0.38-0.18-0.53-0.32c-0.15-0.14-0.27-0.29-0.35-0.47c-0.08-0.18-0.12-0.37-0.12-0.57c0-0.21,0.03-0.41,0.1-0.57
		s0.15-0.31,0.25-0.43s0.23-0.22,0.37-0.31s0.29-0.15,0.44-0.2c0.15-0.05,0.31-0.09,0.47-0.11c0.16-0.02,0.31-0.03,0.46-0.03
		c0.23,0,0.43,0.01,0.59,0.02s0.3,0.04,0.43,0.06l0-0.42c0-0.18-0.03-0.33-0.08-0.47c-0.05-0.13-0.13-0.24-0.22-0.33
		c-0.09-0.09-0.21-0.15-0.34-0.19c-0.13-0.04-0.28-0.06-0.44-0.06c-0.15,0-0.3,0.01-0.44,0.03c-0.14,0.02-0.27,0.05-0.39,0.08
		s-0.23,0.07-0.34,0.12s-0.19,0.09-0.26,0.14l-0.3-0.63c0.12-0.08,0.25-0.15,0.4-0.22c0.14-0.07,0.29-0.12,0.45-0.17
		c0.16-0.05,0.32-0.08,0.48-0.11c0.16-0.03,0.33-0.04,0.49-0.04c0.29,0,0.56,0.04,0.79,0.11c0.23,0.07,0.43,0.18,0.6,0.32
		s0.29,0.33,0.38,0.56c0.09,0.23,0.13,0.5,0.13,0.81l0,2.53h0.56v0.84h-1.47V35.2z M40.24,35.05c0.12,0,0.24-0.01,0.36-0.04
		s0.23-0.07,0.34-0.12c0.11-0.05,0.21-0.11,0.3-0.18c0.09-0.07,0.17-0.14,0.23-0.21l0-1.14h-1.05c-0.18,0-0.34,0.02-0.48,0.06
		s-0.27,0.1-0.38,0.17c-0.11,0.08-0.19,0.17-0.25,0.28c-0.06,0.11-0.09,0.24-0.09,0.38c0,0.13,0.02,0.25,0.07,0.35
		c0.05,0.1,0.12,0.18,0.21,0.25c0.09,0.07,0.2,0.12,0.32,0.15S40.09,35.05,40.24,35.05z"/>
	<path class="st0" d="M47.52,31.96c-0.14-0.24-0.31-0.42-0.52-0.54c-0.21-0.11-0.45-0.17-0.73-0.17c-0.21,0-0.41,0.04-0.6,0.13
		s-0.35,0.21-0.49,0.38c-0.14,0.16-0.25,0.36-0.33,0.59c-0.08,0.23-0.12,0.49-0.12,0.78c0,0.28,0.04,0.54,0.12,0.77
		c0.08,0.23,0.19,0.42,0.33,0.58s0.3,0.28,0.49,0.37c0.18,0.09,0.38,0.13,0.59,0.13c0.31,0,0.58-0.08,0.82-0.23s0.42-0.37,0.55-0.67
		l0.75,0.37c-0.1,0.21-0.22,0.4-0.36,0.56s-0.31,0.31-0.49,0.42s-0.38,0.21-0.6,0.27s-0.45,0.09-0.69,0.09
		c-0.35,0-0.68-0.07-0.97-0.2s-0.56-0.32-0.77-0.55c-0.22-0.24-0.38-0.52-0.51-0.85c-0.12-0.33-0.18-0.69-0.18-1.08
		s0.06-0.75,0.19-1.08c0.13-0.33,0.3-0.61,0.52-0.85c0.22-0.24,0.48-0.42,0.78-0.55c0.3-0.13,0.61-0.2,0.95-0.2
		c0.32,0,0.62,0.06,0.91,0.17c0.28,0.11,0.53,0.28,0.75,0.5h0.51v0.84H47.52z"/>
	<path class="st0" d="M49.42,28.07h1.6v3.1h0.03c0.09-0.09,0.2-0.18,0.31-0.26c0.12-0.08,0.24-0.15,0.37-0.21s0.27-0.1,0.41-0.14
		c0.14-0.03,0.29-0.05,0.44-0.05c0.27,0,0.51,0.04,0.73,0.11c0.22,0.08,0.4,0.19,0.56,0.34c0.15,0.15,0.27,0.35,0.35,0.59
		s0.12,0.52,0.12,0.85v2.42h0.76v0.84h-2.4v-0.84h0.69v-2.31c0-0.39-0.1-0.68-0.3-0.88s-0.48-0.3-0.85-0.3
		c-0.21,0-0.42,0.05-0.63,0.15c-0.21,0.1-0.42,0.22-0.61,0.37v2.97h0.73v0.84h-2.4v-0.84h0.76v-5.92h-0.69V28.07z"/>
	<path class="st0" d="M56.79,33.26c0,0.14,0.01,0.27,0.03,0.39c0.02,0.12,0.05,0.23,0.09,0.34c0.12,0.33,0.31,0.57,0.58,0.74
		c0.27,0.16,0.57,0.25,0.9,0.25c0.26,0,0.52-0.04,0.77-0.11s0.51-0.19,0.78-0.34l0.37,0.62c-0.33,0.23-0.67,0.4-1,0.51
		c-0.34,0.11-0.68,0.17-1.04,0.17c-0.34,0-0.66-0.06-0.95-0.17c-0.29-0.11-0.54-0.28-0.75-0.51s-0.37-0.5-0.49-0.84
		c-0.12-0.33-0.18-0.73-0.18-1.17c0-0.36,0.05-0.7,0.15-1.02c0.1-0.32,0.25-0.6,0.45-0.84s0.45-0.43,0.74-0.57
		c0.3-0.14,0.64-0.21,1.04-0.21c0.38,0,0.7,0.06,0.95,0.17c0.26,0.12,0.46,0.27,0.63,0.46s0.28,0.41,0.37,0.65
		c0.08,0.24,0.14,0.49,0.17,0.75c0.02,0.12,0.03,0.25,0.03,0.38s0.01,0.25,0.01,0.37H56.79z M58.21,31.24
		c-0.21,0-0.4,0.03-0.55,0.09c-0.16,0.06-0.29,0.15-0.4,0.26s-0.2,0.25-0.27,0.41c-0.07,0.16-0.12,0.35-0.15,0.55h2.62
		c-0.01-0.19-0.04-0.36-0.09-0.52c-0.05-0.16-0.12-0.3-0.22-0.42s-0.22-0.21-0.38-0.27C58.63,31.27,58.44,31.24,58.21,31.24z"/>
	<path class="st0" d="M65.18,31.68h-0.93v-0.31c-0.11,0-0.22,0.02-0.33,0.06c-0.11,0.04-0.22,0.1-0.31,0.19s-0.18,0.19-0.26,0.32
		c-0.07,0.13-0.13,0.28-0.16,0.46v2.44h0.86v0.84h-2.51v-0.84h0.7l0-3.38h-0.7v-0.84h1.62v0.7c0.06-0.1,0.12-0.2,0.2-0.29
		c0.07-0.09,0.15-0.17,0.24-0.23c0.09-0.07,0.19-0.12,0.3-0.16c0.11-0.04,0.23-0.06,0.35-0.06c0.17,0,0.33,0,0.48,0s0.3,0,0.45,0.01
		V31.68z"/>
	<path class="st0" d="M68.48,28.07h1.6v3.1h0.03c0.09-0.09,0.2-0.18,0.31-0.26c0.12-0.08,0.24-0.15,0.37-0.21s0.27-0.1,0.41-0.14
		c0.14-0.03,0.29-0.05,0.44-0.05c0.27,0,0.51,0.04,0.73,0.11c0.22,0.08,0.4,0.19,0.56,0.34c0.15,0.15,0.27,0.35,0.35,0.59
		s0.12,0.52,0.12,0.85v2.42h0.76v0.84h-2.4v-0.84h0.69v-2.31c0-0.39-0.1-0.68-0.3-0.88s-0.48-0.3-0.85-0.3
		c-0.21,0-0.42,0.05-0.63,0.15c-0.21,0.1-0.42,0.22-0.61,0.37v2.97h0.73v0.84h-2.4v-0.84h0.76v-5.92h-0.69V28.07z"/>
	<path class="st0" d="M78.17,35.2c-0.19,0.18-0.4,0.33-0.64,0.44c-0.23,0.11-0.5,0.17-0.79,0.17c-0.25,0-0.47-0.04-0.68-0.12
		s-0.38-0.18-0.53-0.32c-0.15-0.14-0.27-0.29-0.35-0.47c-0.08-0.18-0.12-0.37-0.12-0.57c0-0.21,0.03-0.41,0.1-0.57
		s0.15-0.31,0.25-0.43s0.23-0.22,0.37-0.31s0.29-0.15,0.44-0.2c0.15-0.05,0.31-0.09,0.47-0.11c0.16-0.02,0.31-0.03,0.46-0.03
		c0.23,0,0.43,0.01,0.59,0.02s0.3,0.04,0.43,0.06l0-0.42c0-0.18-0.03-0.33-0.08-0.47c-0.05-0.13-0.13-0.24-0.22-0.33
		c-0.09-0.09-0.21-0.15-0.34-0.19c-0.13-0.04-0.28-0.06-0.44-0.06c-0.15,0-0.3,0.01-0.44,0.03c-0.14,0.02-0.27,0.05-0.39,0.08
		s-0.23,0.07-0.34,0.12s-0.19,0.09-0.26,0.14l-0.3-0.63c0.12-0.08,0.25-0.15,0.4-0.22c0.14-0.07,0.29-0.12,0.45-0.17
		c0.16-0.05,0.32-0.08,0.48-0.11c0.16-0.03,0.33-0.04,0.49-0.04c0.29,0,0.56,0.04,0.79,0.11c0.23,0.07,0.43,0.18,0.6,0.32
		s0.29,0.33,0.38,0.56c0.09,0.23,0.13,0.5,0.13,0.81l0,2.53h0.56v0.84h-1.47V35.2z M76.93,35.05c0.12,0,0.24-0.01,0.36-0.04
		s0.23-0.07,0.34-0.12c0.11-0.05,0.21-0.11,0.3-0.18c0.09-0.07,0.17-0.14,0.23-0.21l0-1.14h-1.05c-0.18,0-0.34,0.02-0.48,0.06
		s-0.27,0.1-0.38,0.17c-0.11,0.08-0.19,0.17-0.25,0.28c-0.06,0.11-0.09,0.24-0.09,0.38c0,0.13,0.02,0.25,0.07,0.35
		c0.05,0.1,0.12,0.18,0.21,0.25c0.09,0.07,0.2,0.12,0.32,0.15S76.78,35.05,76.93,35.05z"/>
	<path class="st0" d="M80.68,28.07h1.64v6.76h0.76v0.84h-2.4v-0.84h0.73v-5.92h-0.73V28.07z"/>
	<path class="st0" d="M85.28,30.61h1.19v0.74h-1.2l-0.01,2.92c0,0.2,0.02,0.36,0.07,0.48c0.05,0.12,0.12,0.21,0.22,0.26
		c0.1,0.05,0.21,0.07,0.34,0.07c0.14,0,0.26-0.01,0.36-0.04s0.22-0.07,0.34-0.13l0.21,0.61c-0.16,0.08-0.32,0.15-0.49,0.19
		c-0.17,0.05-0.38,0.07-0.61,0.07c-0.22,0-0.41-0.03-0.58-0.08s-0.3-0.14-0.42-0.27s-0.2-0.3-0.25-0.51
		c-0.06-0.21-0.08-0.48-0.08-0.8l0.01-2.78h-0.81v-0.74h0.82V29.4l0.89-0.42V30.61z"/>
</g>
<path class="st1" d="M14.33,25.4c-0.99,0.42-2.09,0.55-3.56,0.55c-4.03,0-6.59-2.7-6.59-7.09v-6.66H0V8.39h4.18V3.1h4.14v5.29h6.01
	v3.82H8.31v6.66c0,2.27,1.22,3.24,3.28,3.24c0.94,0,1.87-0.17,2.74-0.42V25.4z"/>
<path class="st1" d="M16.98,8.39v3.82h3.75v14.83c0,2.34-1.15,4.28-3.75,4.28v3.86c5.16,0,7.89-3.97,7.89-8.5V8.39H16.98z"/>
<path class="st1" d="M25.59,2.78c0,1.54-1.23,2.73-2.81,2.73c-1.55,0-2.84-1.19-2.84-2.73c0-1.59,1.29-2.78,2.84-2.78
	C24.36,0,25.59,1.19,25.59,2.78z"/>
<path class="st1" d="M45.93,21.6h2.74v3.82h-6.88v-1.19c-1.4,1.01-3.17,1.58-5.22,1.58c-4.75,0-8.57-3.96-8.57-8.89
	c0-4.97,3.82-8.93,8.57-8.93c2.05,0,3.82,0.58,5.22,1.58V8.39h6.88v3.82h-2.74V21.6z M41.79,20.23v-6.66
	c-1.48-1.44-2.99-1.98-4.61-1.98c-2.92,0-5.04,2.48-5.04,5.33c0,2.81,2.12,5.29,5.04,5.29C38.81,22.21,40.32,21.67,41.79,20.23z"/>
<path class="st1" d="M51.73,23c0-1.51,1.3-2.7,2.81-2.7c1.55,0,2.84,1.19,2.84,2.7c0,1.58-1.3,2.74-2.84,2.74
	C53.03,25.74,51.73,24.59,51.73,23z"/>
</svg>
