<?xml version="1.0" encoding="utf-8"?>
<!-- Generator: Adobe Illustrator 23.0.0, SVG Export Plug-In . SVG Version: 6.00 Build 0)  -->
<svg version="1.1" id="Ebene_1" xmlns="http://www.w3.org/2000/svg" xmlns:xlink="http://www.w3.org/1999/xlink" x="0px" y="0px"
	 viewBox="0 0 1089 125" style="enable-background:new 0 0 1089 125;" xml:space="preserve">
<style type="text/css">
	.st0{fill:#74270E;}
</style>
<g>
	<polygon class="st0" points="162.59,0 23.05,139.7 12,128.66 140.66,0 	"/>
	<polygon class="st0" points="212.37,0 72.83,139.7 61.78,128.66 190.44,0 	"/>
	<polygon class="st0" points="262.15,0 122.61,139.7 111.56,128.66 240.22,0 	"/>
	<polygon class="st0" points="311.94,0 172.39,139.7 161.35,128.66 290,0 	"/>
	<polygon class="st0" points="361.72,0 222.17,139.7 211.13,128.66 339.78,0 	"/>
	<polygon class="st0" points="411.5,0 271.95,139.7 260.91,128.66 389.56,0 	"/>
	<polygon class="st0" points="461.28,0 321.74,139.7 310.69,128.66 439.35,0 	"/>
	<polygon class="st0" points="511.06,0 371.52,139.7 360.47,128.66 489.13,0 	"/>
	<polygon class="st0" points="560.85,0 421.3,139.7 410.26,128.66 538.91,0 	"/>
	<polygon class="st0" points="610.63,0 471.08,139.7 460.04,128.66 588.69,0 	"/>
	<polygon class="st0" points="660.41,0 520.86,139.7 509.82,128.66 638.47,0 	"/>
	<polygon class="st0" points="710.19,0 570.65,139.7 559.6,128.66 688.26,0 	"/>
	<polygon class="st0" points="759.97,0 620.43,139.7 609.38,128.66 738.04,0 	"/>
	<polygon class="st0" points="809.75,0 670.21,139.7 659.16,128.66 787.82,0 	"/>
	<polygon class="st0" points="859.54,0 719.99,139.7 708.95,128.66 837.6,0 	"/>
	<polygon class="st0" points="909.32,0 769.77,139.7 758.73,128.66 887.38,0 	"/>
	<polygon class="st0" points="959.1,0 819.56,139.7 808.51,128.66 937.17,0 	"/>
	<polygon class="st0" points="1008.88,0 869.34,139.7 858.29,128.66 986.95,0 	"/>
	<polygon class="st0" points="1058.66,0 919.12,139.7 908.07,128.66 1036.73,0 	"/>
	<polygon class="st0" points="1089,0 1089,19.45 968.9,139.7 957.86,128.66 1086.51,0 	"/>
	<polygon class="st0" points="1089,47.29 1089,69.23 1018.68,139.7 1007.64,128.66 	"/>
	<polygon class="st0" points="1089,97.07 1089,119.01 1068.46,139.7 1057.42,128.66 	"/>
</g>
</svg>
