<?xml version="1.0" encoding="iso-8859-1"?>
<!-- Generator: Adobe Illustrator 22.1.0, SVG Export Plug-In . SVG Version: 6.00 Build 0)  -->
<svg version="1.1" id="Ebene_1" xmlns="http://www.w3.org/2000/svg" xmlns:xlink="http://www.w3.org/1999/xlink" x="0px" y="0px"
	 viewBox="0 0 368.362 400" style="enable-background:new 0 0 368.362 400;" xml:space="preserve">
<g>
	<g>
		<path style="fill:#FFFFFF;" d="M104.923,259.802h214.48c24.321,0,44.16-19.844,44.16-44.16v-91.203c0-0.161,0-0.321-0.078-0.481
			c0-0.156-0.082-0.398-0.082-0.558c0-0.161-0.078-0.321-0.078-0.481c-0.082-0.16-0.082-0.32-0.16-0.559
			c-0.082-0.16-0.082-0.32-0.16-0.48c-0.082-0.16-0.082-0.32-0.16-0.48c-0.082-0.161-0.161-0.321-0.243-0.559
			c-0.078-0.16-0.16-0.32-0.238-0.402l-0.238-0.481c-0.082-0.156-0.16-0.238-0.242-0.398c-0.078-0.16-0.239-0.321-0.321-0.481
			c-0.078-0.16-0.16-0.238-0.32-0.398c-0.078-0.16-0.238-0.242-0.32-0.403c-0.078-0.16-0.239-0.238-0.321-0.398
			c-0.078-0.16-0.238-0.238-0.32-0.32l-0.398-0.399c-0.16-0.082-0.239-0.242-0.399-0.32c-0.16-0.082-0.32-0.242-0.48-0.32
			c-0.16-0.082-0.242-0.161-0.403-0.243c-0.16-0.078-0.32-0.16-0.476-0.32l-0.961-0.476l-0.481-0.243
			c-0.16-0.078-0.32-0.078-0.48-0.16c-0.16-0.078-0.398-0.16-0.559-0.16c-0.16,0-0.32-0.078-0.402-0.078
			c-0.238-0.082-0.398-0.082-0.641-0.082c-0.078,0-0.16-0.078-0.32-0.078l-271.84-37.52V39.239c0-0.398,0-0.8-0.078-1.121
			c0-0.078,0-0.16-0.082-0.316c0-0.242-0.078-0.481-0.078-0.723c-0.078-0.238-0.078-0.398-0.16-0.64
			c0-0.161-0.078-0.239-0.078-0.399l-0.242-0.719c0-0.082-0.079-0.242-0.079-0.32c-0.082-0.242-0.16-0.402-0.32-0.641
			c-0.082-0.082-0.082-0.242-0.16-0.32c-0.082-0.16-0.16-0.32-0.32-0.48c-0.082-0.16-0.161-0.239-0.243-0.399
			c-0.078-0.16-0.16-0.242-0.238-0.402c-0.082-0.16-0.238-0.32-0.32-0.481l-0.719-0.718l-0.242-0.239
			c-0.16-0.16-0.32-0.32-0.559-0.48c-0.082-0.082-0.242-0.16-0.32-0.242c-0.16-0.16-0.32-0.239-0.48-0.399
			c-0.239-0.16-0.481-0.32-0.641-0.398c-0.078-0.082-0.16-0.082-0.238-0.16c-0.321-0.16-0.719-0.321-1.039-0.481L16.845,4.36
			c-5.52-2.32-11.84,0.239-14.161,5.758c-2.32,5.524,0.239,11.84,5.758,14.16L60.763,46.36v236.641
			c0,22.399,16.8,40.957,38.48,43.758c-3.918,6.562-6.238,14.242-6.238,22.402c0,24.078,19.597,43.598,43.597,43.598
			s43.602-19.598,43.602-43.598c0-8-2.16-15.601-6-22h97.121c-3.84,6.481-6,14-6,22c0,24.078,19.598,43.598,43.598,43.598
			s43.601-19.598,43.601-43.598s-19.601-43.601-43.601-43.601h-204c-12.481,0-22.559-10.16-22.559-22.559V253.72
			C88.923,257.56,96.684,259.802,104.923,259.802L104.923,259.802z M158.684,349.079c0,12.16-9.921,22-22,22
			c-12.082,0-22-9.918-22-22c0-12.078,9.918-22,22-22C148.763,327.079,158.684,336.919,158.684,349.079L158.684,349.079z
			 M331.005,349.079c0,12.16-9.922,22-22,22c-12.082,0-22-9.918-22-22c0-12.078,9.918-22,22-22
			C321.083,327.079,331.005,336.919,331.005,349.079L331.005,349.079z M319.403,238.2h-214.48c-12.481,0-22.559-10.16-22.559-22.558
			V98.919l259.602,35.762v80.879C341.966,228.118,331.806,238.2,319.403,238.2L319.403,238.2z M319.403,238.2"/>
	</g>
</g>
</svg>
