<?xml version="1.0" encoding="iso-8859-1"?>
<!-- Generator: Adobe Illustrator 22.1.0, SVG Export Plug-In . SVG Version: 6.00 Build 0)  -->
<svg version="1.1" id="Ebene_1" xmlns="http://www.w3.org/2000/svg" xmlns:xlink="http://www.w3.org/1999/xlink" x="0px" y="0px"
	 viewBox="0 0 377.89 367.276" style="enable-background:new 0 0 377.89 367.276;" xml:space="preserve">
<g>
	<g>
		<path style="fill:#FFFFFF;" d="M267.305,9.829c-30.985,0-59.993,14.031-79.305,37.535c-19.312-23.508-48.32-37.535-79.305-37.535
			C52.07,9.829,6,55.895,6,112.524c0,44.34,26.441,95.629,78.586,152.438c40.125,43.714,83.781,77.566,96.203,86.898l7.207,5.414
			l7.211-5.414c12.422-9.332,56.078-43.18,96.207-86.898C343.559,208.153,370,156.864,370,112.524
			C370,55.895,323.93,9.829,267.305,9.829L267.305,9.829z M273.734,248.731c-33.007,35.957-68.519,65.027-85.738,78.422
			c-17.215-13.395-52.723-42.465-85.73-78.422C54.988,197.227,30,150.126,30,112.524c0-43.394,35.301-78.695,78.695-78.695
			c28.555,0,54.922,15.562,68.809,40.617L188,93.38l10.496-18.934c13.887-25.055,40.254-40.617,68.809-40.617
			c43.394,0,78.695,35.301,78.695,78.695C346,150.126,321.012,197.227,273.734,248.731L273.734,248.731z M273.734,248.731"/>
	</g>
</g>
</svg>
