<?xml version="1.0" encoding="utf-8"?>
<!-- Generator: Adobe Illustrator 22.1.0, SVG Export Plug-In . SVG Version: 6.00 Build 0)  -->
<svg version="1.1" id="Ebene_1" xmlns="http://www.w3.org/2000/svg" xmlns:xlink="http://www.w3.org/1999/xlink" x="0px" y="0px"
	 viewBox="0 0 242.3 243.9" style="enable-background:new 0 0 242.3 243.9;" xml:space="preserve">
<style type="text/css">
	.st0{clip-path:url(#SVGID_2_);fill:#FFFFFF;}
</style>
<g>
	<defs>
		<rect id="SVGID_1_" width="242.3" height="243.9"/>
	</defs>
	<clipPath id="SVGID_2_">
		<use xlink:href="#SVGID_1_"  style="overflow:visible;"/>
	</clipPath>
	<path class="st0" d="M220,96.3l-3.9,1.1c-0.5-1.6-0.9-3.3-1.5-4.9c-0.3-0.9-0.6-1.8-0.9-2.7l3.8-1.4c0.3,0.9,0.7,1.9,1,2.8
		C219,92.9,219.5,94.6,220,96.3 M223.3,112.4l-4,0.5c-0.3-2.6-0.8-5.2-1.3-7.8l4-0.8C222.5,107,223,109.7,223.3,112.4 M224.3,128.9
		l-4.1-0.1c0-2.6,0-5.3-0.2-7.9l4.1-0.2C224.3,123.4,224.3,126.1,224.3,128.9 M222.7,145.3l-4-0.7c0.5-2.6,0.8-5.2,1.1-7.9l4.1,0.4
		C223.6,139.9,223.2,142.6,222.7,145.3 M218.3,161.3l-3.8-1.4c0.9-2.5,1.7-5,2.4-7.5l3.9,1.1C220.1,156,219.3,158.7,218.3,161.3
		 M165.9,28.9l1.9-3.6c2.5,1.3,4.9,2.6,7.2,4.1l-2.1,3.5C170.6,31.5,168.3,30.2,165.9,28.9 M186.7,93.4c-0.4,8.1-10.4,16.7-19,17.1
		c-3.4,0.2-6.1-1.9-7-5c-4.3-15.8-8.5-31.5-12.8-47.2c-1-3.7,0-5.4,3.8-5.1c5.9,0.5,12.1,0.6,17.7,2.3c5.2,1.5,8.8,6,11.3,10.9
		c1.6,3.1,2.7,6.4,4,9.7c0.2,0,0.3,0,0.5,0C185.7,81.8,187,87.6,186.7,93.4 M211.2,176.2l-3.5-2.1c1.3-2.3,2.6-4.6,3.7-7l3.7,1.8
		C213.9,171.4,212.6,173.8,211.2,176.2 M190.4,168.5c-5.1,2.4-7.5,1.1-8.9-4.3c-3.7-14.5-7.5-29-11.2-43.4c-1-3.8-0.4-4.6,3.5-5
		c3.1-0.3,6.1-1.1,9.2-1.5c1.8-0.2,3.7-0.2,5.6-0.3c0.1,0.5,0.2,1.1,0.3,1.6c-4.5,1.1-9.1,2.2-14.2,3.5c2.7,6,5.6,12.2,8.3,18.2
		c3-0.4,5.3-0.7,7.6-1c0.1,0.5,0.2,1,0.4,1.6c-1.2,0.5-2.4,1-3.7,1.4c-2.7,0.8-3.7,2.3-3.1,5.2c1.3,6.2,2.4,12.4,3.4,18.6
		c0.4,2.4,1.6,2.5,3.4,1.6c4.4-2.1,8.7-4.4,13.1-6.3c1.6-0.7,3.6-0.7,5.4-1c0.1,0.5,0.3,0.9,0.4,1.4c-2.3,1-4.5,2-6.7,3.1
		C198.8,164.2,194.7,166.5,190.4,168.5 M201.6,189.6l-3.1-2.7c1.7-2,3.4-4.1,4.9-6.2l3.3,2.4C205.1,185.4,203.4,187.6,201.6,189.6
		 M189.7,201.2l-2.6-3.2c2.1-1.7,4-3.5,5.9-5.3l2.8,2.9C193.9,197.6,191.8,199.4,189.7,201.2 M161.2,177.3c-1.9,0.4-3.8,1.2-5.5,2
		c-2.9,1.4-5.3,0.7-6.2-2.4c-1.6-5.5-2.7-11.2-4.4-16.6c-3-9.8-6.1-19.5-9.5-29.1c-1.6-4.6-1.2-6.1,3.6-7c11.3-2.2,26.1,1.2,30,16.6
		c0.2,0.8,0.5,1.7,0.8,2.5c0.3,0,0.5-0.1,0.8-0.1c0.7,6.8,1.7,13.5,2.1,20.3C173.1,168.4,166.2,176.1,161.2,177.3 M176.1,210.6
		l-2.1-3.5c2.3-1.3,4.6-2.8,6.7-4.3l2.3,3.3C180.9,207.7,178.5,209.2,176.1,210.6 M161.4,217.9l-1.5-3.8c2.5-1,4.9-2.1,7.3-3.3
		l1.8,3.7C166.4,215.7,163.9,216.8,161.4,217.9 M122.5,119.8c-0.8-0.9-2.2-1.6-2.4-2.6c-1.3-7.5-2.4-15-3.6-22.5
		c-1.3-8.4-2.5-16.7-3.7-25.1c-0.1-0.5,0-1,0.1-3.1c4.2,2.4,8.2,3.6,10.8,6.3c4.3,4.4,7.7,9.7,11.4,14.6c1.8,2.4,3.5,5,6.1,7.2
		c-2.5-11.4-5-22.8-7.5-34.2c0.5-0.3,0.9-0.5,1.4-0.8c0.9,1,2.3,1.9,2.7,3c3.5,12.3,7.1,24.7,10.2,37.1c0.8,3.3,0.3,6.9,0.1,10.3
		c-0.1,1-1,2.8-1.6,2.8c-1.2,0-2.8-0.6-3.4-1.6c-4.5-6.4-8.8-12.9-13.2-19.4c-3.6-5.3-7.4-10.5-11.1-15.7c-0.4,0.1-0.9,0.3-1.3,0.4
		c0.2,2.1,0.2,4.2,0.5,6.3c1.8,11.4,3.8,22.8,5.6,34.2C123.6,118,122.8,118.9,122.5,119.8 M152.3,221.2c-2.1,0.7-4.3,1.3-6.5,1.9
		l-1-3.9c2.6-0.7,5.1-1.4,7.6-2.3l1.3,3.9C153.2,220.9,152.7,221,152.3,221.2 M123.2,168.5c-2,0.7-4.1,1-6.2,1
		c-2.7,0-3.1,1.1-2.9,3.4c0.4,4.2,0.6,8.5,0.6,12.7c0,1.2-1,2.4-1.6,3.5c-0.7-1-1.9-2-1.9-3.1c-1.2-14.5-3.6-28.9-2.8-43.5
		c0.1-1.8-0.5-3.7-0.5-5.6c0-1.3,0.1-3.4,0.8-3.7c1.1-0.5,2.9-0.1,4.2,0.4c7.7,3.1,11.6,9.4,13.3,16c4.5,10.5,8.5,20,12.5,29.5
		c0.3,0.7,0.9,1.2,1.2,1.9c0.6,1.4,1.1,2.8,1.6,4.2c-1.7,0.6-3.4,1.6-5.1,1.7c-1,0-2.6-1.2-3.1-2.3c-2.3-4.7-4.4-9.5-6.4-14.3
		C126.1,168.5,125.3,167.8,123.2,168.5 M137.6,224.8c-2.7,0.5-5.5,0.8-8.2,1.1l-0.4-4.1c2.6-0.2,5.3-0.6,7.9-1L137.6,224.8z
		 M90.1,127.5c-0.6-0.9-1.7-1.7-1.8-2.6c-1.3-15.6-2.6-31.3-3.7-46.9c-0.1-1.8,0.7-3.7,1.1-5.6c1.8,0.9,4,1.5,5.3,2.9
		c6.9,7.1,12,15.5,16.1,24.5c2.3,5,5.1,9.6,7.7,14.4c0.3,0.5,0.6,1.1,1.3,2.2c-0.3,1.4-0.1,3.8-1.2,4.9c-2.5,2.5-4.7,1.6-6.3-1.9
		c-1.8-4.1-3.9-8-5.7-12.1c-1-2.3-2.6-2.7-4.8-2.1c-1.8,0.5-3.8,0.7-5.3,1.7c-1,0.7-1.7,2.5-1.8,3.9c-0.1,4.7,0.2,9.4,0.2,14.1
		C91.3,125.7,90.5,126.6,90.1,127.5 M121.2,226.3c-2.7,0-5.5-0.1-8.3-0.3l0.3-4.1c2.6,0.2,5.3,0.3,7.9,0.3L121.2,226.3z M89.4,151.1
		c-0.4,0-0.8,0-1.3,0.1c-0.4,4.3-1,8.6-1.1,12.9c-0.1,4.5-1.8,9.1,1,13.4c0.1,0.1-1.6,1.9-1.9,1.7c-1.4-0.6-2.9-1.4-3.8-2.6
		c-4.4-5.8-8.7-11.8-13.1-17.6c-0.4-0.5-0.9-0.8-2.2-1c0.2,1.5,0.4,3.1,0.8,4.6c2.8,11.2,5.7,22.3,8.5,33.5c0.4,1.7,1.1,3.7-1.6,4.1
		c-2.3,0.4-3.4-0.9-3.9-3.1c-3.3-14.2-6.6-28.4-9.8-42.6c-0.4-1.9,0.1-4,0.2-6c1.8,1,4,1.7,5.4,3.1c5.5,5.5,10.7,11.3,16.3,17.2
		c0.2-0.8,0.6-1.6,0.7-2.5c0.8-7.5,1.4-15.1,2.3-22.6c0.1-1.2,1.1-3.2,2-3.4c1-0.2,2.8,0.9,3.5,1.9c6.8,10.2,10.2,21.6,11.5,33.7
		c0.4,3.9,1.7,7.7,2.6,11.6c0.3,1.1,0.5,2.3,0.7,3.4c-1.3,0.2-2.9,0.9-3.9,0.4c-1.4-0.7-2.9-2.2-3.2-3.6c-3-10.9-5.8-21.9-8.6-32.8
		C90.2,153.6,89.8,152.3,89.4,151.1 M104.7,225.1c-1.2-0.2-2.3-0.4-3.5-0.6c-1.5-0.2-3-0.3-4.5-0.6l0.6-4c1.5,0.2,3,0.4,4.4,0.5
		l0.2,0c1.1,0.2,2.3,0.4,3.4,0.6L104.7,225.1z M88.6,222.4c-2.7-0.6-5.4-1.4-8-2.2l1.3-3.9c2.5,0.8,5.1,1.5,7.6,2.1L88.6,222.4z
		 M27.1,76.1c1.1-2.5,2.3-5,3.5-7.5l3.6,1.9c-1.2,2.3-2.4,4.8-3.4,7.2L27.1,76.1z M72.9,217.2c-2.5-1.1-5-2.3-7.5-3.6l1.9-3.6
		c2.3,1.2,4.7,2.4,7.1,3.4L72.9,217.2z M21.7,91.7c0.7-2.7,1.5-5.3,2.4-7.9l3.8,1.3c-0.9,2.5-1.7,5-2.3,7.6L21.7,91.7z M58.3,209.4
		c-2.3-1.5-4.6-3.1-6.7-4.8l2.5-3.2c2.1,1.6,4.2,3.2,6.4,4.6L58.3,209.4z M45.3,199.2c-2-1.9-4-3.9-5.8-5.9l3-2.7
		c1.7,1.9,3.6,3.9,5.5,5.7L45.3,199.2z M29.7,179.9l3.5-2.1c1.3,2.2,2.8,4.5,4.4,6.6l-3.3,2.4C32.6,184.6,31.1,182.2,29.7,179.9
		 M22.6,164.9l3.8-1.4c0.9,2.5,1.9,4.9,3,7.3l-3.7,1.7C24.6,170.1,23.5,167.5,22.6,164.9 M18.5,148.8l4-0.6c0.4,2.6,0.9,5.2,1.6,7.8
		l-4,1C19.5,154.3,19,151.5,18.5,148.8 M17.5,132.3l4.1,0.1c-0.1,2.6,0,5.3,0.1,7.9l-4.1,0.2C17.5,137.8,17.5,135,17.5,132.3
		 M17.5,116l4.1,0.3c-0.2,2.6-0.3,5.3-0.2,7.9l-4.1,0C17.2,121.5,17.3,118.7,17.5,116 M19.3,102.5c0.2-0.9,0.3-1.8,0.5-2.8l4,0.8
		c-0.2,0.9-0.4,1.8-0.5,2.7c-0.4,1.8-0.7,3.5-0.9,5.1l-4-0.6C18.6,106,19,104.2,19.3,102.5 M41.2,83.6c0.8,0.2,1.8,0,2.4,0.5
		c1.2,1,2.4,2.2,3,3.6c2.7,6.7,5.3,13.4,7.7,20.2c0.8,2.3,1.9,3.2,4.4,2.6c3.6-0.8,7.3-1.6,11-2.1c2.6-0.3,2.7-1.5,2.1-3.6
		c-2.3-7.8-4.6-15.5-6.9-23.3c-0.3-1-0.4-2-0.6-3.2c4.2-0.6,6.1,1.8,7.1,4.7c2.9,8.2,5.7,16.4,8.2,24.7c1.8,6,3.2,12.2,4.7,18.3
		c0.3,1.2,0.3,2.4,0.5,3.9c-3.8-0.1-6.3-1-7.2-4.7c-1-3.9-2.5-7.6-3.5-11.5c-0.6-2.1-1.7-2.9-3.7-2.6c-3.8,0.6-7.6,1-11.4,1.8
		c-2.7,0.6-1.9,2.9-1.4,4.6c1.7,5.7,3.5,11.3,5.3,17c0.1,0.3,0.1,0.7,0.2,1.6c-3.6,0.2-5.9-0.4-7-4.1c-4.8-15.3-10-30.5-14.9-45.8
		C40.9,85.5,41.2,84.5,41.2,83.6 M39.3,54.6l3.3,2.4c-1.5,2.1-3,4.3-4.4,6.6l-3.5-2.1C36.2,59.1,37.8,56.8,39.3,54.6 M50.3,42.2
		l2.8,3c-1.9,1.7-3.7,3.6-5.5,5.7l-3.1-2.7C46.4,46,48.3,44,50.3,42.2 M63.8,32.3l2,3.5c-2.3,1.3-4.5,2.7-6.6,4.3l-2.4-3.3
		C59,35.2,61.4,33.7,63.8,32.3 M74.9,61.8l3.4-1.1l-2.8-8.5l-2.9,2.1l-0.6-2l3.7-2.9l1.3-0.4l3.6,11l3.2-1l0.7,2l-8.9,2.9L74.9,61.8
		z M71.4,28.6c2.5-1,5-2,7.6-2.8l1.3,3.9c-2.5,0.8-4.9,1.8-7.3,2.7l-0.2,0.1l-1.5-3.8L71.4,28.6z M87.1,45.4c3.7-1.2,6.8,1,8.1,4.9
		c1.3,3.9,0,7.5-3.7,8.7c-3.7,1.2-6.8-1-8.1-4.9C82.2,50.2,83.4,46.5,87.1,45.4 M86.9,23.4c2.6-0.7,5.3-1.3,8-1.9l0.8,4
		c-2.6,0.6-5.3,1.2-7.8,1.8L86.9,23.4z M108.7,45.9c1.3,3.9,0,7.5-3.7,8.7c-3.7,1.2-6.8-1-8.1-4.9c-1.3-3.9,0-7.5,3.7-8.7
		C104.3,39.8,107.4,42,108.7,45.9 M102.9,20.1c2.6-0.4,5.4-0.8,8.1-1.1l0.4,4.1c-2.7,0.3-5.4,0.6-7.9,1L102.9,20.1z M115.5,44.4
		c-2.1,0.7-4.3-0.3-5-2.5c-0.7-2.2,0.4-4.2,2.6-4.9c2.1-0.7,4.2,0.3,5,2.5C118.7,41.6,117.6,43.7,115.5,44.4 M122.8,34.6l-4,15.4
		l-1.2-0.4l4-15.4L122.8,34.6z M130.2,42.3c0.7,2.2-0.4,4.3-2.6,5c-2.1,0.7-4.2-0.3-5-2.5c-0.7-2.2,0.4-4.3,2.5-4.9
		C127.3,39.1,129.5,40.1,130.2,42.3 M119.2,18.3c1.9-0.1,3.8-0.2,5.8-0.3c0.8,0,1.6-0.1,2.4-0.1l0.1,4.1c-0.8,0-1.6,0-2.4,0.1
		c-1.9,0.1-3.8,0.2-5.7,0.3L119.2,18.3z M135.6,17.9c3,0.1,5.7,0.2,8.3,0.5l-0.4,4.1c-2.5-0.3-5.1-0.4-7.9-0.5L135.6,17.9z
		 M152.1,19.6c2.7,0.6,5.5,1.4,8,2.3l-1.4,3.8c-2.5-0.9-4.9-1.6-7.5-2.2L152.1,19.6z M181.8,34c2.2,1.6,4.4,3.4,6.4,5.2l-2.7,3.1
		c-2-1.7-4-3.4-6.2-5L181.8,34z M194.3,45c1.9,2,3.7,4.1,5.4,6.3l-3.2,2.5c-1.6-2.1-3.3-4.1-5.1-6L194.3,45z M208.4,65.3l-3.7,1.8
		c-1.2-2.4-2.5-4.7-3.8-6.9l3.5-2.2C205.8,60.4,207.2,62.9,208.4,65.3 M213.7,78.5l0.7,2.2l0,0.1l-3.7,1.7l-0.1-0.3l-0.8-2.4
		c-0.4-1.2-1-3.1-1.9-5.3l3.8-1.5C212.6,75.2,213.3,77.2,213.7,78.5 M230.6,73.4c-3.7-11.6-13.4-43.6-54.6-64.8
		c-16.3-8.4-31.8-9-49.7-8.4C105,1,83,4.5,63.2,12.7C43,21,28.7,36.4,18,55.2C10.3,68.8,5.2,83.7,2.4,99.1
		c-2.2,10.9-3,22.1-2.1,33.5c0,0.1,0,0.3,0,0.4c-1.5,39.2,17.6,73.4,51.7,93.8c14.3,8.5,30,13.4,46.1,15c19.3,3.7,39.8,2.7,59.8-3.8
		c72.2-23.4,98.1-88.7,77.5-152.1C234.1,81.6,232.5,77.4,230.6,73.4"/>
</g>
</svg>
