<?xml version="1.0" encoding="utf-8"?>
<!-- Generator: Adobe Illustrator 22.1.0, SVG Export Plug-In . SVG Version: 6.00 Build 0)  -->
<svg version="1.1" id="Ebene_1" xmlns="http://www.w3.org/2000/svg" xmlns:xlink="http://www.w3.org/1999/xlink" x="0px" y="0px"
	 viewBox="0 0 95.5 38.1" style="enable-background:new 0 0 95.5 38.1;" xml:space="preserve">
<style type="text/css">
	.st0{fill:none;}
	.st1{fill:#E94E1B;stroke:#E94E1B;stroke-width:0.25;stroke-miterlimit:10;}
	.st2{font-family:'Choplin-ExtraLight-DEMO';}
	.st3{font-size:10px;}
	.st4{fill:#FFFFFF;}
</style>
<rect x="30.3" y="29.7" class="st0" width="72.2" height="12.7"/>
<text transform="matrix(1 0 0 1 30.3343 36.8256)" class="st1 st2 st3">Macher halt</text>
<path class="st4" d="M17.3,27.1c-1,0.4-2.1,0.6-3.6,0.6c-4,0-6.6-2.7-6.6-7.1v-6.7H3V10h4.2V4.8h4.1V10h6v3.8h-6v6.7
	c0,2.3,1.2,3.2,3.3,3.2c0.9,0,1.9-0.2,2.7-0.4V27.1z"/>
<path class="st4" d="M19.9,10v3.8h3.8v14.8c0,2.3-1.1,4.3-3.8,4.3v3.9c5.2,0,7.9-4,7.9-8.5V10H19.9z"/>
<path class="st4" d="M28.5,4.4c0,1.5-1.2,2.7-2.8,2.7c-1.5,0-2.8-1.2-2.8-2.7c0-1.6,1.3-2.8,2.8-2.8C27.3,1.7,28.5,2.8,28.5,4.4z"/>
<path class="st4" d="M48.9,23.3h2.7v3.8h-6.9v-1.2c-1.4,1-3.2,1.6-5.2,1.6c-4.8,0-8.6-4-8.6-8.9c0-5,3.8-8.9,8.6-8.9
	c2.1,0,3.8,0.6,5.2,1.6V10h6.9v3.8h-2.7V23.3z M44.8,21.9v-6.7c-1.5-1.4-3-2-4.6-2c-2.9,0-5,2.5-5,5.3c0,2.8,2.1,5.3,5,5.3
	C41.8,23.9,43.3,23.3,44.8,21.9z"/>
<path class="st4" d="M54.7,24.7c0-1.5,1.3-2.7,2.8-2.7c1.5,0,2.8,1.2,2.8,2.7c0,1.6-1.3,2.7-2.8,2.7C56,27.4,54.7,26.2,54.7,24.7z"
	/>
</svg>
