<?xml version="1.0" encoding="utf-8"?>
<!-- Generator: Adobe Illustrator 22.1.0, SVG Export Plug-In . SVG Version: 6.00 Build 0)  -->
<svg version="1.1" id="Ebene_1" xmlns="http://www.w3.org/2000/svg" xmlns:xlink="http://www.w3.org/1999/xlink" x="0px" y="0px"
	 viewBox="0 0 14.9 14.4" style="enable-background:new 0 0 14.9 14.4;" xml:space="preserve">
<g>
	<path d="M10.6,9.1H10L9.8,8.9c0.8-0.9,1.3-2.1,1.3-3.4c0-2.9-2.3-5.2-5.2-5.2S0.7,2.6,0.7,5.5c0,2.9,2.3,5.2,5.2,5.2
		c1.3,0,2.5-0.5,3.4-1.3l0.2,0.2v0.6l4,4l1.2-1.2L10.6,9.1z M5.8,9.1c-2,0-3.6-1.6-3.6-3.6s1.6-3.6,3.6-3.6s3.6,1.6,3.6,3.6
		C9.4,7.5,7.8,9.1,5.8,9.1L5.8,9.1z"/>
</g>
</svg>
