<?xml version="1.0" encoding="utf-8"?>
<!-- Generator: Adobe Illustrator 22.1.0, SVG Export Plug-In . SVG Version: 6.00 Build 0)  -->
<svg version="1.1" id="Ebene_1" xmlns="http://www.w3.org/2000/svg" xmlns:xlink="http://www.w3.org/1999/xlink" x="0px" y="0px"
	 viewBox="0 0 307.3 117.8" style="enable-background:new 0 0 307.3 117.8;" xml:space="preserve">
<style type="text/css">
	.st0{fill:#E94F1C;}
</style>
<polygon class="st0" points="184.6,117.1 292.6,9.1 301.1,17.6 201.6,117.1 "/>
<polygon class="st0" points="146.1,117.1 254.1,9.1 262.6,17.6 163.1,117.1 "/>
<polygon class="st0" points="107.6,117.1 215.6,9.1 224.1,17.6 124.6,117.1 "/>
<polygon class="st0" points="69.1,117.1 177.1,9.1 185.6,17.6 86.1,117.1 "/>
<polygon class="st0" points="30.6,117.1 138.6,9.1 147.1,17.6 47.7,117.1 "/>
<polygon class="st0" points="108.6,17.6 9.2,117.1 0,117.1 0,109.3 100.1,9.1 "/>
<polygon class="st0" points="70.2,17.6 0,87.8 0,70.8 61.6,9.1 "/>
<polygon class="st0" points="31.7,17.6 0,49.3 0,32.3 23.2,9.1 "/>
</svg>
