<?xml version="1.0" encoding="iso-8859-1"?>
<!-- Generator: Adobe Illustrator 22.1.0, SVG Export Plug-In . SVG Version: 6.00 Build 0)  -->
<svg version="1.1" id="Capa_1" xmlns="http://www.w3.org/2000/svg" xmlns:xlink="http://www.w3.org/1999/xlink" x="0px" y="0px"
	 viewBox="-49 141 512 512" style="enable-background:new -49 141 512 512;" xml:space="preserve">
<path style="fill:#FFFFFF;" d="M388.02,471.98c-27.883-27.882-61.071-48.523-97.281-61.018C329.521,384.251,355,339.548,355,289
	c0-81.607-66.393-148-148-148S59,207.393,59,289c0,50.548,25.479,95.251,64.262,121.962c-36.21,12.495-69.398,33.136-97.281,61.018
	C-22.371,520.333-49,584.62-49,653h40c0-119.103,96.897-216,216-216s216,96.897,216,216h40
	C463,584.62,436.371,520.333,388.02,471.98z M99,289c0-59.552,48.449-108,108-108s108,48.448,108,108s-48.449,108-108,108
	S99,348.552,99,289z"/>
</svg>
